<mxfile host="65bd71144e">
    <diagram id="KaPqHPde6xhMtKgNW6uN" name="Page-1">
        <mxGraphModel dx="1578" dy="845" grid="1" gridSize="10" guides="1" tooltips="1" connect="1" arrows="1" fold="1" page="1" pageScale="1" pageWidth="850" pageHeight="1100" background="#ffffff" math="0" shadow="0">
            <root>
                <mxCell id="0"/>
                <mxCell id="1" parent="0"/>
                <mxCell id="67" value="&lt;span style=&quot;color: rgba(0 , 0 , 0 , 0) ; font-family: monospace ; font-size: 0px&quot;&gt;dza&lt;/span&gt;" style="shape=umlFrame;tabPosition=left;html=1;boundedLbl=1;labelInHeader=1;width=50;height=30;" vertex="1" parent="1">
                    <mxGeometry x="30" y="660" width="630" height="180" as="geometry"/>
                </mxCell>
                <mxCell id="68" value="if canceled" style="text;align=center;" vertex="1" parent="67">
                    <mxGeometry width="70" height="20" relative="1" as="geometry">
                        <mxPoint y="40" as="offset"/>
                    </mxGeometry>
                </mxCell>
                <mxCell id="69" value="else" style="text;align=center;" vertex="1" parent="67">
                    <mxGeometry y="123.75" width="40" height="22.5" as="geometry"/>
                </mxCell>
                <mxCell id="70" style="edgeStyle=none;html=1;endArrow=none;endFill=0;startArrow=block;startFill=1;" edge="1" parent="67">
                    <mxGeometry relative="1" as="geometry">
                        <mxPoint x="310" y="140" as="targetPoint"/>
                        <mxPoint x="80" y="140" as="sourcePoint"/>
                    </mxGeometry>
                </mxCell>
                <mxCell id="71" value="Last check in mail&lt;br&gt;Flight confirmation" style="edgeLabel;html=1;align=center;verticalAlign=middle;resizable=0;points=[];" vertex="1" connectable="0" parent="70">
                    <mxGeometry x="-0.104" y="2" relative="1" as="geometry">
                        <mxPoint x="19" as="offset"/>
                    </mxGeometry>
                </mxCell>
                <mxCell id="73" style="edgeStyle=none;html=1;endArrow=block;endFill=1;" edge="1" parent="67">
                    <mxGeometry relative="1" as="geometry">
                        <mxPoint x="590" y="33.75" as="targetPoint"/>
                        <mxPoint x="330" y="33.75" as="sourcePoint"/>
                    </mxGeometry>
                </mxCell>
                <mxCell id="74" value="Cancel Flight(s)" style="edgeLabel;html=1;align=center;verticalAlign=middle;resizable=0;points=[];" vertex="1" connectable="0" parent="73">
                    <mxGeometry x="-0.104" y="2" relative="1" as="geometry">
                        <mxPoint x="19" as="offset"/>
                    </mxGeometry>
                </mxCell>
                <mxCell id="79" style="edgeStyle=none;html=1;endArrow=block;endFill=1;" edge="1" parent="67">
                    <mxGeometry relative="1" as="geometry">
                        <mxPoint x="300" y="22.5" as="targetPoint"/>
                        <mxPoint x="80" y="22.5" as="sourcePoint"/>
                    </mxGeometry>
                </mxCell>
                <mxCell id="80" value="Cancel Reservation" style="edgeLabel;html=1;align=center;verticalAlign=middle;resizable=0;points=[];" vertex="1" connectable="0" parent="79">
                    <mxGeometry x="-0.104" y="2" relative="1" as="geometry">
                        <mxPoint as="offset"/>
                    </mxGeometry>
                </mxCell>
                <mxCell id="72" style="edgeStyle=none;html=1;endArrow=none;endFill=0;dashed=1;exitX=0;exitY=0.5;exitDx=0;exitDy=0;exitPerimeter=0;" edge="1" parent="67">
                    <mxGeometry relative="1" as="geometry">
                        <mxPoint x="600" y="102.85714285714285" as="targetPoint"/>
                        <mxPoint y="103.5428571428572" as="sourcePoint"/>
                    </mxGeometry>
                </mxCell>
                <mxCell id="75" style="edgeStyle=none;html=1;endArrow=none;endFill=0;startArrow=block;startFill=1;dashed=1;" edge="1" parent="67">
                    <mxGeometry relative="1" as="geometry">
                        <mxPoint x="600" y="60" as="targetPoint"/>
                        <mxPoint x="330" y="60" as="sourcePoint"/>
                    </mxGeometry>
                </mxCell>
                <mxCell id="76" value="Confirm Flight(s) Cancelation&lt;br&gt;(or Company Cancelation)" style="edgeLabel;html=1;align=center;verticalAlign=middle;resizable=0;points=[];" vertex="1" connectable="0" parent="75">
                    <mxGeometry x="-0.104" y="2" relative="1" as="geometry">
                        <mxPoint x="19" as="offset"/>
                    </mxGeometry>
                </mxCell>
                <mxCell id="46" value="&lt;span style=&quot;color: rgba(0 , 0 , 0 , 0) ; font-family: monospace ; font-size: 0px&quot;&gt;dza&lt;/span&gt;" style="shape=umlFrame;tabPosition=left;html=1;boundedLbl=1;labelInHeader=1;width=50;height=30;" vertex="1" parent="1">
                    <mxGeometry x="30" y="430" width="630" height="160" as="geometry"/>
                </mxCell>
                <mxCell id="47" value="if paid" style="text;align=center;" vertex="1" parent="46">
                    <mxGeometry width="70" height="20" relative="1" as="geometry">
                        <mxPoint y="40" as="offset"/>
                    </mxGeometry>
                </mxCell>
                <mxCell id="48" value="else" style="text;align=center;" vertex="1" parent="46">
                    <mxGeometry y="110" width="40" height="20" as="geometry"/>
                </mxCell>
                <mxCell id="51" style="edgeStyle=none;html=1;endArrow=none;endFill=0;startArrow=block;startFill=1;" edge="1" parent="46">
                    <mxGeometry relative="1" as="geometry">
                        <mxPoint x="310" y="119.80000000000001" as="targetPoint"/>
                        <mxPoint x="80" y="119.80000000000001" as="sourcePoint"/>
                    </mxGeometry>
                </mxCell>
                <mxCell id="52" value="Unable to continue" style="edgeLabel;html=1;align=center;verticalAlign=middle;resizable=0;points=[];" vertex="1" connectable="0" parent="51">
                    <mxGeometry x="-0.104" y="2" relative="1" as="geometry">
                        <mxPoint x="19" as="offset"/>
                    </mxGeometry>
                </mxCell>
                <mxCell id="55" style="edgeStyle=none;html=1;endArrow=none;endFill=0;dashed=1;exitX=0;exitY=0.5;exitDx=0;exitDy=0;exitPerimeter=0;entryX=1.002;entryY=0.495;entryDx=0;entryDy=0;entryPerimeter=0;" edge="1" parent="46">
                    <mxGeometry relative="1" as="geometry">
                        <mxPoint x="631.2600000000002" y="79.41000000000008" as="targetPoint"/>
                        <mxPoint y="80.21000000000004" as="sourcePoint"/>
                    </mxGeometry>
                </mxCell>
                <mxCell id="60" style="edgeStyle=none;html=1;endArrow=block;endFill=1;" edge="1" parent="46">
                    <mxGeometry relative="1" as="geometry">
                        <mxPoint x="590" y="20" as="targetPoint"/>
                        <mxPoint x="330" y="20" as="sourcePoint"/>
                    </mxGeometry>
                </mxCell>
                <mxCell id="61" value="Reserve Flight(s)" style="edgeLabel;html=1;align=center;verticalAlign=middle;resizable=0;points=[];" vertex="1" connectable="0" parent="60">
                    <mxGeometry x="-0.104" y="2" relative="1" as="geometry">
                        <mxPoint x="19" as="offset"/>
                    </mxGeometry>
                </mxCell>
                <mxCell id="64" style="edgeStyle=none;html=1;endArrow=none;endFill=0;startArrow=block;startFill=1;dashed=1;" edge="1" parent="46">
                    <mxGeometry relative="1" as="geometry">
                        <mxPoint x="600" y="40" as="targetPoint"/>
                        <mxPoint x="330" y="40" as="sourcePoint"/>
                    </mxGeometry>
                </mxCell>
                <mxCell id="65" value="Confirm Flight(s) Reservation" style="edgeLabel;html=1;align=center;verticalAlign=middle;resizable=0;points=[];" vertex="1" connectable="0" parent="64">
                    <mxGeometry x="-0.104" y="2" relative="1" as="geometry">
                        <mxPoint x="19" as="offset"/>
                    </mxGeometry>
                </mxCell>
                <mxCell id="37" value="alt" style="shape=umlFrame;tabPosition=left;html=1;boundedLbl=1;labelInHeader=1;width=50;height=30;" vertex="1" parent="1">
                    <mxGeometry x="30" y="170" width="630" height="160" as="geometry"/>
                </mxCell>
                <mxCell id="38" value="if available" style="text;align=center;" vertex="1" parent="37">
                    <mxGeometry width="70" height="20" relative="1" as="geometry">
                        <mxPoint y="30" as="offset"/>
                    </mxGeometry>
                </mxCell>
                <mxCell id="39" value="else" style="text;align=center;" vertex="1" parent="37">
                    <mxGeometry y="110" width="40" height="20" as="geometry"/>
                </mxCell>
                <mxCell id="40" style="edgeStyle=none;html=1;endArrow=none;endFill=0;startArrow=block;startFill=1;" edge="1" parent="37">
                    <mxGeometry relative="1" as="geometry">
                        <mxPoint x="310" y="50" as="targetPoint"/>
                        <mxPoint x="80" y="50" as="sourcePoint"/>
                    </mxGeometry>
                </mxCell>
                <mxCell id="41" value="Give Price / Details" style="edgeLabel;html=1;align=center;verticalAlign=middle;resizable=0;points=[];" vertex="1" connectable="0" parent="40">
                    <mxGeometry x="-0.104" y="2" relative="1" as="geometry">
                        <mxPoint x="19" as="offset"/>
                    </mxGeometry>
                </mxCell>
                <mxCell id="42" style="edgeStyle=none;html=1;endArrow=none;endFill=0;startArrow=block;startFill=1;" edge="1" parent="37">
                    <mxGeometry relative="1" as="geometry">
                        <mxPoint x="310" y="119.80000000000001" as="targetPoint"/>
                        <mxPoint x="80" y="119.80000000000001" as="sourcePoint"/>
                    </mxGeometry>
                </mxCell>
                <mxCell id="43" value="Unable to continue" style="edgeLabel;html=1;align=center;verticalAlign=middle;resizable=0;points=[];" vertex="1" connectable="0" parent="42">
                    <mxGeometry x="-0.104" y="2" relative="1" as="geometry">
                        <mxPoint x="19" as="offset"/>
                    </mxGeometry>
                </mxCell>
                <mxCell id="44" style="edgeStyle=none;html=1;endArrow=none;endFill=0;startArrow=block;startFill=1;dashed=1;" edge="1" parent="37">
                    <mxGeometry relative="1" as="geometry">
                        <mxPoint x="600" y="100" as="targetPoint"/>
                        <mxPoint x="330" y="100" as="sourcePoint"/>
                    </mxGeometry>
                </mxCell>
                <mxCell id="45" value="Flight Unavailable" style="edgeLabel;html=1;align=center;verticalAlign=middle;resizable=0;points=[];" vertex="1" connectable="0" parent="44">
                    <mxGeometry x="-0.104" y="2" relative="1" as="geometry">
                        <mxPoint x="19" as="offset"/>
                    </mxGeometry>
                </mxCell>
                <mxCell id="33" style="edgeStyle=none;html=1;endArrow=none;endFill=0;dashed=1;exitX=0;exitY=0.5;exitDx=0;exitDy=0;exitPerimeter=0;entryX=1.002;entryY=0.495;entryDx=0;entryDy=0;entryPerimeter=0;" edge="1" parent="1">
                    <mxGeometry relative="1" as="geometry">
                        <mxPoint x="661.2600000000002" y="249.20000000000016" as="targetPoint"/>
                        <mxPoint x="30" y="250" as="sourcePoint"/>
                    </mxGeometry>
                </mxCell>
                <mxCell id="5" style="edgeStyle=none;html=1;endArrow=none;endFill=0;dashed=1;" edge="1" parent="1" source="2">
                    <mxGeometry relative="1" as="geometry">
                        <mxPoint x="105" y="880" as="targetPoint"/>
                    </mxGeometry>
                </mxCell>
                <mxCell id="2" value="" style="shape=umlActor;verticalLabelPosition=bottom;verticalAlign=top;html=1;" vertex="1" parent="1">
                    <mxGeometry x="90" y="40" width="30" height="60" as="geometry"/>
                </mxCell>
                <mxCell id="10" style="edgeStyle=none;html=1;endArrow=block;endFill=1;" edge="1" parent="1">
                    <mxGeometry relative="1" as="geometry">
                        <mxPoint x="330" y="130" as="targetPoint"/>
                        <mxPoint x="110" y="130" as="sourcePoint"/>
                    </mxGeometry>
                </mxCell>
                <mxCell id="11" value="Make Reservation" style="edgeLabel;html=1;align=center;verticalAlign=middle;resizable=0;points=[];" vertex="1" connectable="0" parent="10">
                    <mxGeometry x="-0.104" y="2" relative="1" as="geometry">
                        <mxPoint as="offset"/>
                    </mxGeometry>
                </mxCell>
                <mxCell id="12" style="edgeStyle=none;html=1;endArrow=block;endFill=1;" edge="1" parent="1">
                    <mxGeometry relative="1" as="geometry">
                        <mxPoint x="620" y="150" as="targetPoint"/>
                        <mxPoint x="360" y="150" as="sourcePoint"/>
                    </mxGeometry>
                </mxCell>
                <mxCell id="13" value="Check Flights" style="edgeLabel;html=1;align=center;verticalAlign=middle;resizable=0;points=[];" vertex="1" connectable="0" parent="12">
                    <mxGeometry x="-0.104" y="2" relative="1" as="geometry">
                        <mxPoint x="19" as="offset"/>
                    </mxGeometry>
                </mxCell>
                <mxCell id="14" style="edgeStyle=none;html=1;endArrow=none;endFill=0;startArrow=block;startFill=1;dashed=1;" edge="1" parent="1">
                    <mxGeometry relative="1" as="geometry">
                        <mxPoint x="630" y="190" as="targetPoint"/>
                        <mxPoint x="360" y="190" as="sourcePoint"/>
                    </mxGeometry>
                </mxCell>
                <mxCell id="15" value="Flight Available" style="edgeLabel;html=1;align=center;verticalAlign=middle;resizable=0;points=[];" vertex="1" connectable="0" parent="14">
                    <mxGeometry x="-0.104" y="2" relative="1" as="geometry">
                        <mxPoint x="19" as="offset"/>
                    </mxGeometry>
                </mxCell>
                <mxCell id="29" value="Airplane&lt;br&gt;Company&lt;br&gt;" style="shape=umlLifeline;perimeter=lifelinePerimeter;whiteSpace=wrap;html=1;container=1;collapsible=0;recursiveResize=0;outlineConnect=0;" vertex="1" parent="1">
                    <mxGeometry x="590" y="40" width="100" height="840" as="geometry"/>
                </mxCell>
                <mxCell id="30" value="" style="html=1;points=[];perimeter=orthogonalPerimeter;fillColor=#808080;" vertex="1" parent="29">
                    <mxGeometry x="40" y="90" width="20" height="720" as="geometry"/>
                </mxCell>
                <mxCell id="31" value="Travel&lt;br&gt;Agency" style="shape=umlLifeline;perimeter=lifelinePerimeter;whiteSpace=wrap;html=1;container=1;collapsible=0;recursiveResize=0;outlineConnect=0;" vertex="1" parent="1">
                    <mxGeometry x="295" y="40" width="100" height="840" as="geometry"/>
                </mxCell>
                <mxCell id="49" style="edgeStyle=none;html=1;endArrow=none;endFill=0;startArrow=block;startFill=1;" edge="1" parent="31">
                    <mxGeometry relative="1" as="geometry">
                        <mxPoint x="40" y="450" as="targetPoint"/>
                        <mxPoint x="-190" y="450" as="sourcePoint"/>
                    </mxGeometry>
                </mxCell>
                <mxCell id="50" value="Confirm Reservation" style="edgeLabel;html=1;align=center;verticalAlign=middle;resizable=0;points=[];" vertex="1" connectable="0" parent="49">
                    <mxGeometry x="-0.104" y="2" relative="1" as="geometry">
                        <mxPoint x="19" as="offset"/>
                    </mxGeometry>
                </mxCell>
                <mxCell id="32" value="" style="html=1;points=[];perimeter=orthogonalPerimeter;" vertex="1" parent="31">
                    <mxGeometry x="40" y="80" width="20" height="730" as="geometry"/>
                </mxCell>
                <mxCell id="77" style="edgeStyle=none;html=1;endArrow=none;endFill=0;startArrow=block;startFill=1;" edge="1" parent="31">
                    <mxGeometry relative="1" as="geometry">
                        <mxPoint x="40" y="700" as="targetPoint"/>
                        <mxPoint x="-190" y="700" as="sourcePoint"/>
                    </mxGeometry>
                </mxCell>
                <mxCell id="78" value="Cancelation mail&lt;br&gt;(Reimburse)" style="edgeLabel;html=1;align=center;verticalAlign=middle;resizable=0;points=[];" vertex="1" connectable="0" parent="77">
                    <mxGeometry x="-0.104" y="2" relative="1" as="geometry">
                        <mxPoint x="19" as="offset"/>
                    </mxGeometry>
                </mxCell>
                <mxCell id="62" style="edgeStyle=none;html=1;endArrow=block;endFill=1;" edge="1" parent="1">
                    <mxGeometry relative="1" as="geometry">
                        <mxPoint x="330" y="400" as="targetPoint"/>
                        <mxPoint x="110" y="400" as="sourcePoint"/>
                    </mxGeometry>
                </mxCell>
                <mxCell id="63" value="Make Payment" style="edgeLabel;html=1;align=center;verticalAlign=middle;resizable=0;points=[];" vertex="1" connectable="0" parent="62">
                    <mxGeometry x="-0.104" y="2" relative="1" as="geometry">
                        <mxPoint as="offset"/>
                    </mxGeometry>
                </mxCell>
            </root>
        </mxGraphModel>
    </diagram>
</mxfile>